<svg xmlns="http://www.w3.org/2000/svg" viewBox="0 0 40 60" width="40" height="60"><g fill="#fff"><path d="M10.6 33.2c-1.5 3.6-3.5 5.1-6.3 4.9.5 4.2 3.6 6.6 7.9 6.6h8.6c3.1 0 5.1-1.8 5.1-4.4 0-3.3-3.2-5.7-7.3-6.6z"/><circle cx="14.4" cy="26.6" r="7"/><path d="M20.1 25.4c3.1-.8 6.3-.4 8.1 1.6-1.7 2.2-4.8 2.9-8.1 2.1z"/></g><circle cx="16.3" cy="24.6" r="1.5" fill="#000" fill-opacity=".45"/><g fill="none" stroke="#fff" stroke-width="2" stroke-linecap="round"><path d="M31 23.4a4.1 4.1 0 0 1 0 5.5"/><path d="M33.6 20.1a8 8 0 0 1 0 12.1" opacity=".75"/></g></svg>
